<svg width="212" height="138" xmlns="http://www.w3.org/2000/svg">

 <g>
  <title>background</title>
  <rect fill="none" id="canvas_background" height="140" width="214" y="-1" x="-1"/>
 </g>
 <g>
  <title>Layer 1</title>
  <g id="svg_2">
   <polygon id="svg_3" points="122.4000244140625,5.4000091552734375 88.9000244140625,5.4000091552734375 105.70001220703125,22.100006103515625 " fill="#C4D776"/>
   <polygon id="svg_4" points="154.70001220703125,15.899993896484375 160.9000244140625,22.100006103515625 177.5999755859375,5.4000091552734375 144.0999755859375,5.4000091552734375 " fill="#91C155"/>
   <polygon id="svg_5" points="44.29998779296875,15.899993896484375 46,17.600006103515625 46,17.600006103515625 50.5,22.100006103515625 55,17.600006103515625 67.20001220703125,5.4000091552734375 33.70001220703125,5.4000091552734375 " fill="#C4D776"/>
   <polygon id="svg_6" points="46,39.300018310546875 29.20001220703125,56.100006103515625 46,72.79998779296875 " fill="#C4D776"/>
   <polygon id="svg_7" points="94.79998779296875,88.20001220703125 94.79998779296875,88.20001220703125 61.29998779296875,88.20001220703125 78.0999755859375,104.89999389648438 " fill="#4FAC41"/>
   <polygon id="svg_8" points="139.5,68.60000610351562 133.29998779296875,62.399993896484375 116.5,79.20001220703125 150,79.20001220703125 " fill="#A4C400"/>
   <polygon id="svg_9" points="105.70001220703125,77.30001831054688 126.9000244140625,56.100006103515625 126.9000244140625,56.100006103515625 126.9000244140625,56.100006103515625 105.70001220703125,34.79998779296875 84.4000244140625,56.100006103515625 " fill="#A4C400"/>
   <rect id="svg_10" height="30" width="30" fill="#008E57" transform="matrix(0.7071,-0.7071,0.7071,0.7071,58.1598,456.976) " y="-225.81328" x="263.0554"/>
   <polygon id="svg_11" points="71.70001220703125,56.100006103515625 55,39.300018310546875 55,79.20001220703125 94.79998779296875,79.20001220703125 " fill="#A4C400"/>
   <path id="svg_12" d="m66.7,17.1c-3,3 -4.7,7.1 -4.7,11.4c0,4.3 1.7,8.4 4.7,11.4c3,3 7.1,4.7 11.4,4.7c4.3,0 8.4,-1.7 11.4,-4.7c3,-3 4.7,-7.1 4.7,-11.4c0,-4.3 -1.7,-8.4 -4.7,-11.4c-3,-3 -7.1,-4.7 -11.4,-4.7c-4.3,-0.1 -8.4,1.6 -11.4,4.7z" fill="#A4C400"/>
   <rect id="svg_13" height="30" width="30" fill="#91C155" transform="matrix(-0.7071,0.7071,-0.7071,-0.7071,903.3099,-223.1959) " y="429.61328" x="785.5446"/>
   <rect id="svg_14" height="30" width="30" fill="#A4C400" transform="matrix(0.7071,-0.7071,0.7071,0.7071,124.7869,452.2295) " y="-308.61328" x="290.6554"/>
   <polygon id="svg_15" points="139.5999755859375,56.100006103515625 160.9000244140625,77.30001831054688 182.0999755859375,56.100006103515625 171.5,45.5 160.9000244140625,34.79998779296875 " fill="#A4C400"/>
   <rect id="svg_16" height="30" width="30" fill="#91C155" transform="matrix(0.7071,0.7071,-0.7071,0.7071,247.6939,-447.0372) " y="363.1446" x="279.38672"/>
   <path id="svg_17" d="m125.4,91.9c-1.1,2.5 -1.1,6.3 1.8,9.3c1.6,1.6 3.7,2.5 6,2.5c2.3,0 4.4,-0.9 6,-2.5c3,-3 2.9,-6.7 1.8,-9.3c-1.1,-2.5 -3.7,-5.3 -7.9,-5.3c-4,0 -6.6,2.7 -7.7,5.3z" fill="#4FAC41"/>
  </g>
 </g>
</svg>