<?xml version="1.0" encoding="UTF-8" standalone="no"?><!DOCTYPE svg PUBLIC "-//W3C//DTD SVG 1.1//EN" "http://www.w3.org/Graphics/SVG/1.1/DTD/svg11.dtd"><svg width="100%" height="100%" viewBox="0 0 1915 2172" version="1.1" xmlns="http://www.w3.org/2000/svg" xmlns:xlink="http://www.w3.org/1999/xlink" xml:space="preserve" xmlns:serif="http://www.serif.com/" style="fill-rule:evenodd;clip-rule:evenodd;stroke-linecap:round;stroke-linejoin:round;stroke-miterlimit:1.5;"><path d="M1489.76,395.366c-0,-39.421 -32.005,-71.426 -71.426,-71.426l-964.496,-0c-39.421,-0 -71.426,32.005 -71.426,71.426l0,1373.3c0,39.421 32.005,71.426 71.426,71.426l964.496,-0c39.421,-0 71.426,-32.005 71.426,-71.426l-0,-1373.3Z" style="fill:#292d3c;"/><text x="770.787px" y="479.886px" style="font-family:'ArialMT', 'Arial', sans-serif;font-size:143.352px;fill:#fff;">Store</text><g><text x="612.193px" y="787.614px" style="font-family:'ArialMT', 'Arial', sans-serif;font-size:83.333px;fill:#fff;">&quot;product&quot; reducer</text><path d="M1368.63,717.044c0,-26.62 -21.612,-48.231 -48.231,-48.231l-768.619,-0c-26.62,-0 -48.232,21.611 -48.232,48.231l-0,96.463c-0,26.62 21.612,48.232 48.232,48.232l768.619,0c26.619,0 48.231,-21.612 48.231,-48.232l0,-96.463Z" style="fill:none;stroke:#fff;stroke-width:6.25px;"/></g><g><text x="670.115px" y="1090.98px" style="font-family:'ArialMT', 'Arial', sans-serif;font-size:83.333px;fill:#fff;">&quot;user&quot; reducer</text><path d="M1368.63,1020.41c0,-26.62 -21.612,-48.231 -48.231,-48.231l-768.619,-0c-26.62,-0 -48.232,21.611 -48.232,48.231l-0,96.464c-0,26.619 21.612,48.231 48.232,48.231l768.619,0c26.619,0 48.231,-21.612 48.231,-48.231l0,-96.464Z" style="fill:none;stroke:#fff;stroke-width:6.25px;"/></g><g><text x="736.777px" y="1599.69px" style="font-family:'ArialMT', 'Arial', sans-serif;font-size:83.333px;fill:#292d3c;">&quot;todo&quot;</text><path d="M1596.19,1456c0,-40.072 -32.533,-72.605 -72.604,-72.605l-1157.03,-0c-40.072,-0 -72.605,32.533 -72.605,72.605l-0,145.209c-0,40.072 32.533,72.605 72.605,72.605l1157.03,0c40.071,0 72.604,-32.533 72.604,-72.605l0,-145.209Z" style="fill:#292d3c;stroke:#fff;stroke-width:6.25px;"/></g><text x="488.932px" y="1625.59px" style="font-family:'ArialMT', 'Arial', sans-serif;font-size:83.333px;fill:#fff;">&quot;todo&quot; (setState) reducer</text><path d="M293.496,1516.74l1298.89,-0" style="fill:none;stroke:#fff;stroke-width:6.25px;"/><path d="M382.412,536.465l1107.35,-3.057" style="fill:none;stroke:#fff;stroke-width:6.25px;stroke-linecap:butt;"/><text x="714.264px" y="1478.3px" style="font-family:'ArialMT', 'Arial', sans-serif;font-size:75px;fill:#fff;">Feature Store</text><g><path d="M1292.57,2060.84c0,-24.963 -20.266,-45.229 -45.229,-45.229l-590.1,-0c-24.963,-0 -45.229,20.266 -45.229,45.229l-0,65.503c-0,24.963 20.266,45.229 45.229,45.229l590.1,0c24.963,0 45.229,-20.266 45.229,-45.229l0,-65.503Z" style="fill:#fff;"/><text x="672.186px" y="2125.33px" style="font-family:'ArialMT', 'Arial', sans-serif;font-size:91.667px;fill:#292d3c;">Component B</text></g><g><path d="M1292.57,45.229c0,-24.963 -20.266,-45.229 -45.229,-45.229l-590.1,-0c-24.963,-0 -45.229,20.266 -45.229,45.229l-0,65.504c-0,24.962 20.266,45.228 45.229,45.228l590.1,0c24.963,0 45.229,-20.266 45.229,-45.228l0,-65.504Z" style="fill:#fff;"/><text x="672.186px" y="109.718px" style="font-family:'ArialMT', 'Arial', sans-serif;font-size:91.667px;fill:#292d3c;">Component <tspan x="1166.51px " y="109.718px ">A</tspan></text></g><path d="M229.024,1572.78l37.5,-28.125l-37.5,-28.125l0,56.25Z" style="fill:#fff;"/><path d="M236.524,1544.65l-74.418,0c-52.157,0 -94.502,42.345 -94.502,94.502l0,355.671c0,52.157 42.345,94.502 94.502,94.502l404.418,-0" style="fill:none;stroke:#fff;stroke-width:12.5px;"/><path d="M312.357,932.426l37.5,-28.125l-37.5,-28.125l0,56.25Z" style="fill:#fff;"/><path d="M319.857,904.301l-124.418,-0c-52.157,-0 -94.502,-42.345 -94.502,-94.502l0,-630.671c0,-52.157 42.345,-94.502 94.502,-94.502l379.418,0" style="fill:none;stroke:#fff;stroke-width:12.5px;"/><path d="M1382.95,112.751l-37.5,-28.125l37.5,-28.125l0,56.25Z" style="fill:#dd1e85;"/><path d="M1545.45,904.301l187.752,-0c52.157,-0 94.502,-42.345 94.502,-94.502l-0,-630.671c-0,-52.157 -42.345,-94.502 -94.502,-94.502l-357.752,0" style="fill:none;stroke:#dd1e85;stroke-width:12.5px;"/><path d="M1385.33,2117.45l-37.5,-28.125l37.5,-28.125l-0,56.25Z" style="fill:#dd1e85;"/><path d="M1647.83,1544.65l104.418,0c52.157,0 94.502,42.345 94.502,94.502l-0,355.671c-0,52.157 -42.345,94.502 -94.502,94.502l-374.418,-0" style="fill:none;stroke:#dd1e85;stroke-width:12.5px;"/><text x="134.378px" y="2021.09px" style="font-family:'JetBrainsMono-Bold', 'JetBrains Mono', monospace;font-weight:700;font-size:83.333px;fill:#fff;">setState</text><text x="176.168px" y="212.6px" style="font-family:'JetBrainsMono-Bold', 'JetBrains Mono', monospace;font-weight:700;font-size:83.333px;fill:#fff;">dispatch</text><text x="1455.01px" y="2021.09px" style="font-family:'JetBrainsMono-Bold', 'JetBrains Mono', monospace;font-weight:700;font-size:83.333px;fill:#dd1e85;">select</text><text x="1455.01px" y="226.767px" style="font-family:'JetBrainsMono-Bold', 'JetBrains Mono', monospace;font-weight:700;font-size:83.333px;fill:#dd1e85;">select</text><g><path d="M1559.93,1212.93c-6.241,-19.442 -8.041,-39.964 -4.441,-61.086c1.56,-8.761 3.961,-17.162 6.601,-25.683c-0,0 16.562,-54.366 72.608,-79.208c-0,-0 19.322,-10.201 48.365,-10.921c-0,-0 -3.961,-3.841 -6.481,-5.521c-13.681,-9.121 -34.084,-12.121 -46.445,0.72c-3.72,3.84 -6.841,8.041 -10.321,11.881c-3.96,4.321 -8.761,7.921 -14.281,9.961c-4.801,1.801 -9.602,1.441 -14.522,2.281c-5.041,0.84 -10.201,2.64 -14.282,5.88c-4.44,3.601 -6.24,8.401 -6.72,13.922c-0.48,4.32 -0.36,8.761 -0.6,13.081c-0.6,12.721 -4.681,16.322 -13.802,23.403c-3.84,2.88 -7.08,6.72 -9.481,10.801c-7.2,12.721 4.321,25.922 4.921,38.764c0.12,2.64 -0.12,5.28 -1.08,7.801c-0.96,2.76 -2.881,4.56 -4.441,6.84c-2.16,3.001 -3.6,6.601 -3,10.321c0.6,3.721 2.52,7.201 4.32,10.441c3.481,5.761 7.801,10.922 12.362,15.842c0.24,0 0.48,0.24 0.72,0.48" style="fill:#e32286;fill-rule:nonzero;"/><path d="M1788.91,1259.02c27.603,-12.001 39.364,-32.763 39.364,-32.763c25.803,-35.164 17.042,-72.248 17.042,-72.248c-16.442,35.764 -31.444,45.605 -31.444,45.605c40.445,-61.567 0.24,-98.771 0.24,-98.771c16.442,35.044 -5.4,77.769 -5.4,77.769c-18.362,38.644 -44.405,52.445 -44.405,52.445c29.043,5.401 50.405,-14.161 50.405,-14.161c-41.644,45.004 -86.769,42.844 -86.769,42.844c18.962,21.242 47.405,19.442 47.405,19.442c-37.204,8.761 -72.127,-3.6 -100.81,-27.483c-5.401,-4.44 -10.561,-9.241 -15.362,-14.401c0,-0 -4.32,-4.561 -5.16,-5.761l-0.12,-0.12c-0.6,22.202 22.562,42.845 22.562,42.845c-29.043,-12.002 -42.364,-38.044 -42.364,-38.044c-0,-0 -19.563,-33.364 -5.401,-71.408c14.161,-38.044 57.006,-46.205 57.006,-46.205c35.404,17.162 65.407,22.563 65.407,22.563c63.246,10.561 59.646,-20.403 59.646,-20.403c0.6,-26.642 -39.604,-54.965 -39.604,-54.965c-71.648,-53.166 -136.454,-18.842 -136.454,-18.842c-56.046,24.842 -72.608,79.208 -72.608,79.208c-2.64,8.521 -5.041,16.922 -6.601,25.683c-6.12,35.643 3.121,69.367 23.163,99.37c31.203,46.565 81.848,62.647 81.848,62.647c75.008,25.442 126.254,-12.002 126.254,-12.002c47.165,-32.403 56.646,-69.847 56.646,-69.847c-38.044,29.763 -54.486,27.003 -54.486,27.003Zm-58.566,-175.098c3.6,-0 6.48,2.88 6.48,6.48c0,3.601 -2.88,6.481 -6.48,6.481c-3.601,-0 -6.481,-2.88 -6.481,-6.481c-0,-3.6 2.88,-6.48 6.481,-6.48Z" style="fill:url(#_Linear1);fill-rule:nonzero;"/><path d="M1810.63,1120.64c0.6,-26.642 -39.604,-54.965 -39.604,-54.965c-71.648,-53.046 -136.454,-18.722 -136.454,-18.722c-56.046,24.842 -72.608,79.208 -72.608,79.208c-3.24,9.241 -6.121,23.402 -6.121,23.402c-3.48,17.762 -1.92,34.204 -1.92,34.204c1.44,15.722 4.921,26.283 4.921,26.283c3.6,11.281 5.28,14.761 5.28,14.761c-0.12,-0.36 -0.72,-3 -0.72,-3c0,0 -5.04,-24.242 -0.36,-47.525c0,0 4.08,-24.242 20.642,-42.964c0,-0 26.883,-38.284 76.928,-23.283c0,0 10.801,3.841 14.522,5.761c3.72,1.8 10.201,4.56 10.201,4.56c35.404,17.162 65.407,22.563 65.407,22.563c63.486,10.681 59.886,-20.283 59.886,-20.283Zm-80.288,-23.642c-3.601,-0 -6.481,-2.88 -6.481,-6.481c-0,-3.6 2.88,-6.48 6.481,-6.48c3.6,-0 6.48,2.88 6.48,6.48c0,3.601 -2.88,6.481 -6.48,6.481Z" style="fill:url(#_Radial2);fill-rule:nonzero;"/><path d="M1689.3,1072.4l-40.924,-12.721c-0.24,0 -1.44,-0.6 -3.6,0c-0,0 -24.123,6.121 -19.922,19.322c-0,0 2.52,8.281 9.361,16.322l45.004,-2.16l10.081,-20.763Z" style="fill:url(#_Linear3);fill-rule:nonzero;"/></g><defs><linearGradient id="_Linear1" x1="0" y1="0" x2="1" y2="0" gradientUnits="userSpaceOnUse" gradientTransform="matrix(149.339,-158.87,158.87,149.339,1588.6,1299.82)"><stop offset="0" style="stop-color:#e01d84;stop-opacity:1"/><stop offset="0.4" style="stop-color:#df1d85;stop-opacity:1"/><stop offset="0.77" style="stop-color:#932c87;stop-opacity:1"/><stop offset="1" style="stop-color:#5d2f88;stop-opacity:1"/></linearGradient><radialGradient id="_Radial2" cx="0" cy="0" r="1" gradientUnits="userSpaceOnUse" gradientTransform="matrix(145.914,0.348734,-0.291827,122.013,1752.99,1100)"><stop offset="0" style="stop-color:#e01d84;stop-opacity:1"/><stop offset="0.14" style="stop-color:#de1e85;stop-opacity:1"/><stop offset="0.28" style="stop-color:#d62085;stop-opacity:1"/><stop offset="0.43" style="stop-color:#c92386;stop-opacity:1"/><stop offset="0.59" style="stop-color:#b72786;stop-opacity:1"/><stop offset="0.74" style="stop-color:#9d2b87;stop-opacity:1"/><stop offset="0.89" style="stop-color:#7c2e88;stop-opacity:1"/><stop offset="1" style="stop-color:#5d2f88;stop-opacity:1"/></radialGradient><linearGradient id="_Linear3" x1="0" y1="0" x2="1" y2="0" gradientUnits="userSpaceOnUse" gradientTransform="matrix(64.9976,0,0,64.9976,1624.27,1077.36)"><stop offset="0" style="stop-color:#e01d84;stop-opacity:1"/><stop offset="0.24" style="stop-color:#da1e85;stop-opacity:1"/><stop offset="0.66" style="stop-color:#c72085;stop-opacity:1"/><stop offset="1" style="stop-color:#b52284;stop-opacity:1"/><stop offset="1" style="stop-color:#b52284;stop-opacity:1"/></linearGradient></defs></svg>