<?xml version="1.0" encoding="UTF-8" standalone="no"?><!DOCTYPE svg PUBLIC "-//W3C//DTD SVG 1.1//EN" "http://www.w3.org/Graphics/SVG/1.1/DTD/svg11.dtd"><svg width="100%" height="100%" viewBox="0 0 1915 2172" version="1.1" xmlns="http://www.w3.org/2000/svg" xmlns:xlink="http://www.w3.org/1999/xlink" xml:space="preserve" xmlns:serif="http://www.serif.com/" style="fill-rule:evenodd;clip-rule:evenodd;stroke-linecap:round;stroke-linejoin:round;stroke-miterlimit:1.5;"><path d="M1489.76,395.366c-0,-39.421 -32.005,-71.426 -71.426,-71.426l-964.496,-0c-39.421,-0 -71.426,32.005 -71.426,71.426l0,1373.3c0,39.421 32.005,71.426 71.426,71.426l964.496,-0c39.421,-0 71.426,-32.005 71.426,-71.426l-0,-1373.3Z" style="fill:#292d3c;"/><text x="770.787px" y="479.886px" style="font-family:'ArialMT', 'Arial', sans-serif;font-size:143.352px;fill:#fff;">Store</text><g><text x="612.193px" y="787.614px" style="font-family:'ArialMT', 'Arial', sans-serif;font-size:83.333px;fill:#fff;">&quot;product&quot; reducer</text><path d="M1368.63,717.044c0,-26.62 -21.612,-48.231 -48.231,-48.231l-768.619,-0c-26.62,-0 -48.232,21.611 -48.232,48.231l-0,96.463c-0,26.62 21.612,48.232 48.232,48.232l768.619,0c26.619,0 48.231,-21.612 48.231,-48.232l0,-96.463Z" style="fill:none;stroke:#fff;stroke-width:6.25px;"/></g><g><text x="670.115px" y="1090.98px" style="font-family:'ArialMT', 'Arial', sans-serif;font-size:83.333px;fill:#fff;">&quot;user&quot; reducer</text><path d="M1368.63,1020.41c0,-26.62 -21.612,-48.231 -48.231,-48.231l-768.619,-0c-26.62,-0 -48.232,21.611 -48.232,48.231l-0,96.464c-0,26.619 21.612,48.231 48.232,48.231l768.619,0c26.619,0 48.231,-21.612 48.231,-48.231l0,-96.464Z" style="fill:none;stroke:#fff;stroke-width:6.25px;"/></g><g><text x="736.777px" y="1599.69px" style="font-family:'ArialMT', 'Arial', sans-serif;font-size:83.333px;fill:#292d3c;">&quot;todo&quot;</text><path d="M1596.19,1456c0,-40.072 -32.533,-72.605 -72.604,-72.605l-1157.03,-0c-40.072,-0 -72.605,32.533 -72.605,72.605l-0,145.209c-0,40.072 32.533,72.605 72.605,72.605l1157.03,0c40.071,0 72.604,-32.533 72.604,-72.605l0,-145.209Z" style="fill:#292d3c;stroke:#fff;stroke-width:6.25px;"/></g><text x="488.932px" y="1625.59px" style="font-family:'ArialMT', 'Arial', sans-serif;font-size:83.333px;fill:#fff;">&quot;todo&quot; (setState) reducer</text><path d="M293.496,1516.74l1298.89,-0" style="fill:none;stroke:#fff;stroke-width:6.25px;"/><path d="M382.412,536.465l1107.35,-3.057" style="fill:none;stroke:#fff;stroke-width:6.25px;stroke-linecap:butt;"/><text x="714.264px" y="1478.3px" style="font-family:'ArialMT', 'Arial', sans-serif;font-size:75px;fill:#fff;">Feature Store</text><g><path d="M1292.57,2060.84c0,-24.963 -20.266,-45.229 -45.229,-45.229l-590.1,-0c-24.963,-0 -45.229,20.266 -45.229,45.229l-0,65.503c-0,24.963 20.266,45.229 45.229,45.229l590.1,0c24.963,0 45.229,-20.266 45.229,-45.229l0,-65.503Z" style="fill:#fff;"/><text x="672.186px" y="2125.33px" style="font-family:'ArialMT', 'Arial', sans-serif;font-size:91.667px;fill:#292d3c;">Component B</text></g><g><path d="M1292.57,45.229c0,-24.963 -20.266,-45.229 -45.229,-45.229l-590.1,-0c-24.963,-0 -45.229,20.266 -45.229,45.229l-0,65.504c-0,24.962 20.266,45.228 45.229,45.228l590.1,0c24.963,0 45.229,-20.266 45.229,-45.228l0,-65.504Z" style="fill:#fff;"/><text x="672.186px" y="109.718px" style="font-family:'ArialMT', 'Arial', sans-serif;font-size:91.667px;fill:#292d3c;">Component <tspan x="1166.51px " y="109.718px ">A</tspan></text></g><path d="M229.024,1572.78l37.5,-28.125l-37.5,-28.125l0,56.25Z" style="fill:#fff;"/><path d="M236.524,1544.65l-74.418,0c-52.157,0 -94.502,42.345 -94.502,94.502l0,355.671c0,52.157 42.345,94.502 94.502,94.502l404.418,-0" style="fill:none;stroke:#fff;stroke-width:12.5px;"/><path d="M312.357,932.426l37.5,-28.125l-37.5,-28.125l0,56.25Z" style="fill:#fff;"/><path d="M319.857,904.301l-124.418,-0c-52.157,-0 -94.502,-42.345 -94.502,-94.502l0,-630.671c0,-52.157 42.345,-94.502 94.502,-94.502l379.418,0" style="fill:none;stroke:#fff;stroke-width:12.5px;"/><path d="M1382.95,112.751l-37.5,-28.125l37.5,-28.125l0,56.25Z" style="fill:#fff;"/><path d="M1545.45,904.301l187.752,-0c52.157,-0 94.502,-42.345 94.502,-94.502l-0,-630.671c-0,-52.157 -42.345,-94.502 -94.502,-94.502l-357.752,0" style="fill:none;stroke:#fff;stroke-width:12.5px;"/><path d="M1385.33,2117.45l-37.5,-28.125l37.5,-28.125l-0,56.25Z" style="fill:#fff;"/><path d="M1647.83,1544.65l104.418,0c52.157,0 94.502,42.345 94.502,94.502l-0,355.671c-0,52.157 -42.345,94.502 -94.502,94.502l-374.418,-0" style="fill:none;stroke:#fff;stroke-width:12.5px;"/><text x="134.378px" y="2021.09px" style="font-family:'JetBrainsMono-Bold', 'JetBrains Mono', monospace;font-weight:700;font-size:83.333px;fill:#fff;">setState</text><text x="176.168px" y="212.6px" style="font-family:'JetBrainsMono-Bold', 'JetBrains Mono', monospace;font-weight:700;font-size:83.333px;fill:#fff;">dispatch</text><text x="1455.01px" y="2021.09px" style="font-family:'JetBrainsMono-Bold', 'JetBrains Mono', monospace;font-weight:700;font-size:83.333px;fill:#fff;">select</text><text x="1455.01px" y="226.767px" style="font-family:'JetBrainsMono-Bold', 'JetBrains Mono', monospace;font-weight:700;font-size:83.333px;fill:#f6f6f6;">select</text></svg>