<?xml version="1.0" encoding="UTF-8" standalone="no"?><!DOCTYPE svg PUBLIC "-//W3C//DTD SVG 1.1//EN" "http://www.w3.org/Graphics/SVG/1.1/DTD/svg11.dtd">
<svg width="100%" height="100%" viewBox="0 0 867 530" version="1.1" xmlns="http://www.w3.org/2000/svg"
     xml:space="preserve"
     style="fill-rule:evenodd;clip-rule:evenodd;stroke-linejoin:round;stroke-miterlimit:2;"><path d="M503.143,0l-139.584,0l70,69.583l69.584,-69.583Z" style="fill:#fff;fill-rule:nonzero;"/><path d="M637.726,43.75l25.833,25.833l69.584,-69.583l-139.584,0l44.167,43.75Z" style="fill:#fff;fill-rule:nonzero;"/><path d="M177.726,43.75l25.833,25.833l69.584,-69.583l-139.584,0l44.167,43.75Z" style="fill:#fff;fill-rule:nonzero;"/><path d="M184.809,141.25l-70,70l70,69.583l0,-139.583Z" style="fill:#fff;fill-rule:nonzero;"/><path d="M388.143,345l-139.584,0l70,69.583l69.584,-69.583Z" style="fill:#fff;fill-rule:nonzero;"/><path d="M574.393,263.333l-25.834,-25.833l-70,70l139.584,0l-43.75,-44.167Z" style="fill:#fff;fill-rule:nonzero;"/><path d="M433.559,299.583l88.334,-88.333l-88.334,-88.75l-88.75,88.75l88.75,88.333Z" style="fill:#fff;fill-rule:nonzero;"/><path d="M433.587,352.85l-88.387,88.387l88.387,88.388l88.388,-88.388l-88.388,-88.387Z" style="fill:#fff;"/><path d="M291.893,211.25l-69.584,-70l0,166.25l165.834,0l-96.25,-96.25Z" style="fill:#fff;fill-rule:nonzero;"/><path d="M271.059,48.75c-12.5,12.5 -19.583,29.583 -19.583,47.5c-0,17.917 7.083,35 19.583,47.5c12.5,12.5 29.584,19.583 47.5,19.583c17.917,0 35,-7.083 47.5,-19.583c12.5,-12.5 19.584,-29.583 19.584,-47.5c-0,-17.917 -7.084,-35 -19.584,-47.5c-12.5,-12.5 -29.583,-19.583 -47.5,-19.583c-17.916,-0.417 -35,6.666 -47.5,19.583Z" style="fill:#fff;fill-rule:nonzero;"/><path d="M88.388,184.567l88.387,-88.387l-88.387,-88.388l-88.388,88.388l88.388,88.387Z" style="fill:#fff;"/><path d="M548.567,7.807l-88.387,88.387l88.387,88.388l88.388,-88.388l-88.388,-88.387Z" style="fill:#fff;"/><path d="M574.809,211.25l88.75,88.333l88.334,-88.333l-44.167,-44.167l-44.167,-44.583l-88.75,88.75Z" style="fill:#fff;fill-rule:nonzero;"/><path d="M866.816,96.29l-88.387,-88.387l-88.388,88.387l88.388,88.388l88.387,-88.388Z" style="fill:#fff;"/><path d="M515.643,360.417c-4.584,10.416 -4.584,26.25 7.5,38.75c6.666,6.666 15.416,10.416 25,10.416c9.583,0 18.333,-3.75 25,-10.416c12.5,-12.5 12.083,-27.917 7.5,-38.75c-4.584,-10.417 -15.417,-22.084 -32.917,-22.084c-16.667,0 -27.5,11.25 -32.083,22.084Z" style="fill:#fff;fill-rule:nonzero;"/></svg>
